<?xml version="1.0" encoding="UTF-8"?>
<svg id="Layer_1" xmlns="http://www.w3.org/2000/svg" version="1.1" width="32" height="32" viewBox="0 0 32 32">
  <!-- Generator: Adobe Illustrator 30.6.0, SVG Export Plug-In . SVG Version: 2.1.4 Build 109)  -->
  <defs>
    <style>
      .st0 {
        fill: #141414;
      }
    </style>
  </defs>
  <path class="st0" d="M16,11c-.41,0-.75.34-.75.75v3.5h-3.5c-.41,0-.75.34-.75.75s.34.75.75.75h3.5v3.5c0,.41.34.75.75.75.41,0,.75-.34.75-.75v-3.5h3.5c.41,0,.75-.34.75-.75s-.34-.75-.75-.75h-3.5v-3.5c0-.41-.34-.75-.75-.75ZM16,0c8.84,0,16,7.16,16,16s-7.16,16-16,16S0,24.84,0,16,7.16,0,16,0Z"/>
</svg>
